{"title":"black sea 213 (1998) VHSRip ","uid":7942995,"size":754057216,"categoryP":"video","categoryS":"movies","magnet":"?xt=urn:btih:e1b8ac0a1e4bddb07d8f29aad59aafab389aee1f&amp;dn=black+sea+213+%281998%29+VHSRip+&amp;tr=udp%3A%2F%2Ftracker.openbittorrent.com%3A80&amp;tr=udp%3A%2F%2Fopen.demonii.com%3A1337&amp;tr=udp%3A%2F%2Ftracker.coppersurfer.tk%3A6969&amp;tr=udp%3A%2F%2Fexodus.desync.com%3A6969","seeders":1,"leechers":0,"uploader":"yfjfrj","files":-1,"time":1356043665,"description":"Gabe, a photographer, his assistant, Annie, and his boss hire a ship to take them out to sea on a modeling shoot. What Gabe doesn't know is that an old friend-turned-enemy of his has indirectly lured him into the situation, and the models that were hired locally are skilled weapons handlers and dealers. The ship is on its way to meet a South African submarine to whom Dean means to sell a piece of high-tech and illegal cargo. Everything goes horribly wrong when Dean, the captain, the models and Gabe all start killing each other and they spend the rest of the film trying to survive\n\nMediaInfo:\nGeneral\nComplete name                            : D:Black Sea 213Black_Sea_213.avi\nFormat                                   : AVI\nFormat/Info                              : Audio Video Interleave\nFile size                                : 719 MiB\nDuration                                 : 1h 22mn\nOverall bit rate                         : 1 213 Kbps\nWriting application                      : VirtualDubMod 1.5.4.1 (build 2178/release)\nWriting library                          : VirtualDubMod build 2178/release\n\nVideo\nID                                       : 0\nFormat                                   : MPEG-4 Visual\nFormat profile                           : Advanced Simple@L5\nFormat settings, BVOP                    : 1\nFormat settings, QPel                    : No\nFormat settings, GMC                     : No warppoints\nFormat settings, Matrix                  : Custom\nCodec ID                                 : XVID\nCodec ID/Hint                            : XviD\nDuration                                 : 1h 22mn\nBit rate                                 : 950 Kbps\nWidth                                    : 720 pixels\nHeight                                   : 544 pixels\nDisplay aspect ratio                     : 4:3\nFrame rate                               : 23.976 fps\nColor space                              : YUV\nChroma subsampling                       : 4:2:0\nBit depth                                : 8 bits\nScan type                                : Progressive\nCompression mode                         : Lossy\nBits/(Pixel*Frame)                       : 0.101\nStream size                              : 563 MiB (78%)\nWriting library                          : XviD 64\n\nAudio\nID                                       : 1\nFormat                                   : MPEG Audio\nFormat version                           : Version 1\nFormat profile                           : Layer 2\nCodec ID                                 : 50\nDuration                                 : 1h 22mn\nBit rate mode                            : Constant\nBit rate                                 : 256 Kbps\nChannel(s)                               : 2 channels\nSampling rate                            : 48.0 KHz\nCompression mode                         : Lossy\nStream size                              : 152 MiB (21%)\nAlignment                                : Aligned on interleaves\nInterleave, duration                     : 83 ms (2.00 video frames)\nInterleave, preload duration             : 504 ms\n\n","torrent":{"xt":"urn:btih:e1b8ac0a1e4bddb07d8f29aad59aafab389aee1f","amp;dn":"black+sea+213+%281998%29+VHSRip+","amp;tr":["udp%3A%2F%2Ftracker.openbittorrent.com%3A80","udp%3A%2F%2Fopen.demonii.com%3A1337","udp%3A%2F%2Ftracker.coppersurfer.tk%3A6969","udp%3A%2F%2Fexodus.desync.com%3A6969"],"infoHash":"e1b8ac0a1e4bddb07d8f29aad59aafab389aee1f","infoHashBuffer":{"type":"Buffer","data":[225,184,172,10,30,75,221,176,125,143,41,170,213,154,175,171,56,154,238,31]},"announce":[],"urlList":[]}}